/* XPM */
static char *_538430388617[] = {
/* columns rows colors chars-per-pixel */
"32 32 13 1 ",
"  c #0C362A",
". c #114B3F",
"X c #165F56",
"o c #1B7074",
"O c #D64000",
"+ c #D86B00",
"@ c #25849D",
"# c #2FA7C6",
"$ c #51D1D6",
"% c #ACF8F0",
"& c #DBF8F5",
"* c white",
"= c None",
/* pixels */
"================================",
"================================",
"================================",
"================================",
"================================",
"================================",
"==================    ==========",
"===============   oXoX   =======",
"=============  ooooXXXXoX ======",
"===========  oooooXXXXXoXX =====",
"=========  o@ooooXXXoXXXXo =====",
"======== oooo@ooXXXXXoXXoX =====",
"======= oooooooXXXoXXXXoXX =====",
"=======.@@@@oo    XXXXo     ====",
"======.@@@@@@.%%%% XXo.@@@@ +===",
"======.@#@@@.&&&&&& o.####.O++==",
"======.@@@#@.****** o.$$$$.O++==",
"======.##@@@@.&&&& @@o.@@@@.+===",
"=======.###@@@....@@#@@.... ====",
"=======.$$###@@@@@@@@@@@@@.=====",
"========.$$########@@@@@@@.=====",
"=========..#####$#########.=====",
"===========..$###$##$$####.=====",
"=============..##########.======",
"===============...$###...=======",
"==================....==========",
"================================",
"================================",
"================================",
"================================",
"================================",
"================================"
};
