/* XPM */
static char *_538237207789[] = {
/* columns rows colors chars-per-pixel */
"32 32 33 1 ",
"  c #EB1C23",
". c #ED1F23",
"X c #EC1C24",
"o c #EC1D24",
"O c #EC1E24",
"+ c #ED1F24",
"@ c #EE2424",
"# c #EE2624",
"$ c #EF2C25",
"% c #F02F25",
"& c #F23C25",
"* c #F14322",
"= c #F34325",
"- c #F45922",
"; c #F75C25",
": c #FA6326",
"> c #F96624",
", c #FA6726",
"< c #FF7F27",
"1 c #FFAC1E",
"2 c #FFB81C",
"3 c #FF8725",
"4 c #FF8D24",
"5 c #FF8E24",
"6 c #FF9023",
"7 c #FF9323",
"8 c #FF9722",
"9 c #FF9E21",
"0 c #FFA120",
"q c #FFC01A",
"w c #FFC618",
"e c #FFCA18",
"r c None",
/* pixels */
"rrrrrrrrrrrrrrrrrrrrrrrrrrrrrrrr",
"rrrrrrrrrrrrrrrrrrrrrrrrrrrrrrrr",
"rrrrrrrrrrrrrrrrrrrrrrrrrrrrrrrr",
"rrrrrrrrrrrrrrrrrrrrrrrrrrrrrrrr",
"rrrrrrrrrrrrrrrrrrrrrrrrrrrrrrrr",
"rrrrrrrrrrrrrrrrrrrrrrrrrrrrrrrr",
"rrrrrrrrrrrrrrrrrrrrrrrrrrrrrrrr",
"rrrrrrrrrrrrrrrrrrrrrrrrrrrrrrrr",
"rrrrrrrrrrrrrrrrrrrrrrrrrrrrrrrr",
"rrrrrrrrrrrrrrrrrrrrrrrrrrrrrrrr",
"rrrrrrrrrrrrrrrrrrrrrrrrrXXXXXXr",
"rrrrrrrrrrrrrrrrrrrrrXXXXXXXXXXX",
"rrrrrrrrw187744,;=#XXXXXXXXXXXXX",
"rrrreeee2<<<<<&XXXXXXXXXXXXXXXXX",
"rreeeeee9<<<<,XXXXXXXXXXXXXXXXX@",
"rrrreeee0<<<<:XXXXXXXXXXXXXXXXXX",
"rrrrrrrrq3<<<<%XXXXXXXXXXXXXXXXX",
"rrrrrrrrrrrrrrr-*$#.XXXXXXXXXXXX",
"rrrrrrrrrrrrrrrrrrrrr XXXXXXXXXX",
"rrrrrrrrrrrrrrrrrrrrrrrXXXXXXXXX",
"rrrrrrrrrrrrrrrrrrrrrrrrrrrXrrrr",
"rrrrrrrrrrrrrrrrrrrrrrrrrrrrrrrr",
"rrrrrrrrrrrrrrrrrrrrrrrrrrrrrrrr",
"rrrrrrrrrrrrrrrrrrrrrrrrrrrrrrrr",
"rrrrrrrrrrrrrrrrrrrrrrrrrrrrrrrr",
"rrrrrrrrrrrrrrrrrrrrrrrrrrrrrrrr",
"rrrrrrrrrrrrrrrrrrrrrrrrrrrrrrrr",
"rrrrrrrrrrrrrrrrrrrrrrrrrrrrrrrr",
"rrrrrrrrrrrrrrrrrrrrrrrrrrrrrrrr",
"rrrrrrrrrrrrrrrrrrrrrrrrrrrrrrrr",
"rrrrrrrrrrrrrrrrrrrrrrrrrrrrrrrr",
"rrrrrrrrrrrrrrrrrrrrrrrrrrrrrrrr"
};
