/* XPM */
static char *_538430414319[] = {
/* columns rows colors chars-per-pixel */
"32 32 15 1 ",
"  c #21070D",
". c #360C11",
"X c #4A1113",
"o c #741E1B",
"O c #9D3D25",
"+ c #D84000",
"@ c #D86B00",
"# c #C6662F",
"$ c #FF9B29",
"% c #3C93E0",
"& c #6AFFF6",
"* c #ACF8F0",
"= c #DBF8F5",
"- c white",
"; c None",
/* pixels */
";;;;;;;;;;;;;;;;;;;;;;;;;;;;;;;;",
";;;;;;;;;;;;;;;;;;;;;;;;;;;;;;;;",
";;;;;;;;;;;;;;;;;;;;;;;;;;;;;;;;",
";;;;;;;;;;;;;;;;;;;;;;;;;;;;;;;;",
";;;;;;;;;;;;;;;;;;;;;;;;;;;;;;;;",
";;;;;;;;;;;;;;;;;;;;;;;;;;;;;;;;",
";;;;;;;;;;;....;;;;;;;;;;;;;;;;;",
";;;;;;;;;; ####.;;;;;;;;;;;;;;;;",
";;;;;;;;  ######..;;;;;;;;;;;;;;",
";;;;;;  ###....$##..;;;;;;;;;;;;",
";;;;; ####.####.$###..;;;;;;;;;;",
";;;;; OO..OOO###..####..;;;;;;;;",
";;;;; ..OOOOOOO###..###$.;;;;;;;",
";;;;.....ooO#O....##..###...%;;;",
";;;@.OOOO.ooO ====.###.....&%%;;",
";;@@+.$$$$.oX ----.OO#####.&&%%;",
";;@@+.####.XX ====.OooOO##.&&%%;",
";;;@.OOOO XXX **** OOO    .&%%;;",
";;;;.    XooXX    oo  ooo...%;;;",
";;;;;   XXXXXXoXXo  XXXX ;;;;;;;",
";;;;; .X  XoXXXX  XoXX  ;;;;;;;;",
";;;;; .... XoXX XXXX  ;;;;;;;;;;",
";;;;;;  ...    XXX  ;;;;;;;;;;;;",
";;;;;;;;  ....XX  ;;;;;;;;;;;;;;",
";;;;;;;;;; ..XX ;;;;;;;;;;;;;;;;",
";;;;;;;;;;;    ;;;;;;;;;;;;;;;;;",
";;;;;;;;;;;;;;;;;;;;;;;;;;;;;;;;",
";;;;;;;;;;;;;;;;;;;;;;;;;;;;;;;;",
";;;;;;;;;;;;;;;;;;;;;;;;;;;;;;;;",
";;;;;;;;;;;;;;;;;;;;;;;;;;;;;;;;",
";;;;;;;;;;;;;;;;;;;;;;;;;;;;;;;;",
";;;;;;;;;;;;;;;;;;;;;;;;;;;;;;;;"
};
