/* XPM */
static char *_538087182659[] = {
/* columns rows colors chars-per-pixel */
"32 32 12 1 ",
"  c #180721",
". c #2B0C36",
"X c #721B74",
"o c #84D13D",
"O c #9D258B",
"+ c #C62F97",
"@ c #D65196",
"# c #CCEDB1",
"$ c #ACF8F0",
"% c #DBF8F5",
"& c white",
"* c None",
/* pixels */
"********************************",
"********************************",
"********************************",
"********************************",
"*     **************************",
".+OOOO      ********************",
".@++++OOOOOO      **************",
"*..@@+++OOOOXXXOXX  ************",
"***...@@+OOXXOOXXXXX  **********",
"******...OXXXXXXXXXXXX  ********",
"*********      XXXOXXXXX *******",
"********* OOOOX     XOOXX ******",
"******** OO+OOOXXXXX  XXXX *****",
"******** O+OOO    XXXX XXXX ****",
"******* OOOOO $$$$ XXOX OXX #***",
"******* OOOO.%%%%%% XXO XX o##**",
"*******.@++O.&&&&&& OXX XO o##**",
"*******.@@+OO.%%%% OOOX OOO #***",
"********.@++OO....OOOO OOOO ****",
"********.@@+++OOOOO+  O+OO *****",
"********* @@@++     OO+OO ******",
"*********      OOOOOOO+O *******",
"******   OOOOOOOOOOOOO  ********",
"***   OOOO+@+++++++O  **********",
"*  OOOO+++@+++@+++  ************",
".@++++++++++      **************",
".@@@@+      ********************",
"*.....**************************",
"********************************",
"********************************",
"********************************",
"********************************"
};
